<?xml version="1.0" encoding="UTF-8" standalone="no"?>
<!-- Created with Inkscape (http://www.inkscape.org/) -->

<svg
   width="600mm"
   height="100mm"
   viewBox="0 0 600 100"
   version="1.1"
   id="svg5"
   inkscape:version="1.2.2 (b0a8486541, 2022-12-01)"
   sodipodi:docname="header.svg"
   xmlns:inkscape="http://www.inkscape.org/namespaces/inkscape"
   xmlns:sodipodi="http://sodipodi.sourceforge.net/DTD/sodipodi-0.dtd"
   xmlns="http://www.w3.org/2000/svg"
   xmlns:svg="http://www.w3.org/2000/svg">
  <sodipodi:namedview
     id="namedview7"
     pagecolor="#ffffff"
     bordercolor="#000000"
     borderopacity="0.25"
     inkscape:showpageshadow="2"
     inkscape:pageopacity="0.0"
     inkscape:pagecheckerboard="0"
     inkscape:deskcolor="#d1d1d1"
     inkscape:document-units="mm"
     showgrid="false"
     inkscape:zoom="0.4204826"
     inkscape:cx="1061.8751"
     inkscape:cy="412.62111"
     inkscape:window-width="1920"
     inkscape:window-height="1083"
     inkscape:window-x="0"
     inkscape:window-y="0"
     inkscape:window-maximized="1"
     inkscape:current-layer="layer1" />
  <defs
     id="defs2">
    <rect
       x="0"
       y="0"
       width="2267.7165"
       height="377.95276"
       id="rect922" />
  </defs>
  <g
     inkscape:label="Warstwa 1"
     inkscape:groupmode="layer"
     id="layer1">
    <rect
       style="display:none;fill:#000000;stroke-width:0.264583"
       id="rect234"
       width="600"
       height="100"
       x="0"
       y="0"
       inkscape:label="tło" />
    <text
       xml:space="preserve"
       transform="scale(0.26458333)"
       id="text920"
       style="white-space:pre;shape-inside:url(#rect922);display:inline;fill:#000000" />
    <g
       aria-label="TRANSCENDENCE"
       id="text928"
       style="font-size:52.9167px;letter-spacing:3.96875px;display:inline;fill:#ffffff;stroke-width:0.264583"
       inkscape:label="tekst">
      <path
         d="M 57.182655,35.840646 V 68.21595 H 52.273391 V 35.840646 H 39.767687 v -4.030764 h 29.920672 v 4.030764 z"
         style="font-family:'Liberation Sans';-inkscape-font-specification:'Liberation Sans'"
         id="path1156" />
      <path
         d="M 104.94721,68.21595 95.490415,53.100584 H 84.147431 V 68.21595 H 79.212329 V 31.809882 h 17.130747 q 6.149504,0 9.482634,2.76469 3.35897,2.738853 3.35897,7.648117 0,4.056602 -2.37712,6.821293 -2.35128,2.764691 -6.51123,3.488161 l 10.33529,15.683807 z m -0.72347,-25.941585 q 0,-3.178102 -2.17041,-4.831749 -2.144578,-1.679485 -6.20118,-1.679485 H 84.147431 v 13.435881 h 11.911425 q 3.901573,0 6.020304,-1.808677 2.14458,-1.834514 2.14458,-5.11597 z"
         style="font-family:'Liberation Sans';-inkscape-font-specification:'Liberation Sans'"
         id="path1158" />
      <path
         d="m 147.20822,68.21595 -4.15995,-10.645351 h -16.58815 l -4.18579,10.645351 h -5.11597 l 14.85698,-36.406068 h 5.6069 l 14.62444,36.406068 z m -12.45403,-32.685363 -0.23254,0.72347 q -0.64596,2.144574 -1.91203,5.503544 l -4.65088,11.963101 h 13.61675 l -4.67672,-12.014778 q -0.72347,-1.782838 -1.44694,-4.030764 z"
         style="font-family:'Liberation Sans';-inkscape-font-specification:'Liberation Sans'"
         id="path1160" />
      <path
         d="m 184.27574,68.21595 -19.48202,-31.005878 0.12919,2.506308 0.12919,4.314985 V 68.21595 h -4.3925 V 31.809882 h 5.73609 l 19.68873,31.212583 q -0.31006,-5.064293 -0.31006,-7.338057 V 31.809882 h 4.44418 V 68.21595 Z"
         style="font-family:'Liberation Sans';-inkscape-font-specification:'Liberation Sans'"
         id="path1162" />
      <path
         d="m 231.3685,58.164878 q 0,5.038455 -3.95325,7.803146 -3.92741,2.764691 -11.0846,2.764691 -13.30669,0 -15.42542,-9.250087 l 4.78007,-0.956015 q 0.82682,3.281456 3.514,4.831749 2.68717,1.524456 7.31222,1.524456 4.78007,0 7.36389,-1.627808 2.60966,-1.653647 2.60966,-4.83175 0,-1.782838 -0.82682,-2.893882 -0.80098,-1.111044 -2.27376,-1.834514 -1.47278,-0.723471 -3.514,-1.214397 -2.04122,-0.490926 -4.52169,-1.059368 -4.31499,-0.956014 -6.56291,-1.912029 -2.22209,-0.956014 -3.514,-2.118735 -1.29192,-1.188558 -1.98955,-2.764691 -0.67179,-1.576132 -0.67179,-3.617352 0,-4.67672 3.56567,-7.208867 3.59152,-2.532146 10.25778,-2.532146 6.20118,0 9.48263,1.912029 3.28146,1.886191 4.59921,6.459558 l -4.85759,0.852661 q -0.80098,-2.893882 -3.04891,-4.185793 -2.24793,-1.31775 -6.22701,-1.31775 -4.36667,0 -6.66627,1.446941 -2.2996,1.446941 -2.2996,4.314985 0,1.679485 0.8785,2.790529 0.90434,1.085205 2.58382,1.860352 1.67949,0.749309 6.6921,1.860353 1.67949,0.387574 3.33314,0.800985 1.67948,0.387574 3.20394,0.956015 1.52445,0.542603 2.8422,1.291911 1.34359,0.749309 2.32544,1.834515 0.98186,1.085206 1.52446,2.557985 0.56844,1.472779 0.56844,3.462323 z"
         style="font-family:'Liberation Sans';-inkscape-font-specification:'Liberation Sans'"
         id="path1164" />
      <path
         d="m 258.22993,35.298043 q -6.04615,0 -9.40512,3.901573 -3.35897,3.875735 -3.35897,10.645351 0,6.692102 3.48816,10.774543 3.514,4.056602 9.48263,4.056602 7.64812,0 11.49802,-7.570602 l 4.03076,2.015382 q -2.24793,4.702559 -6.33037,7.157191 -4.0566,2.454632 -9.43095,2.454632 -5.50354,0 -9.53431,-2.273765 -4.00492,-2.299602 -6.12366,-6.537072 -2.0929,-4.263309 -2.0929,-10.076911 0,-8.707484 4.70256,-13.642586 4.70256,-4.935102 13.02247,-4.935102 5.8136,0 9.71518,2.273764 3.90157,2.273765 5.73608,6.743779 l -4.67672,1.550293 q -1.26607,-3.178102 -4.08244,-4.857587 -2.79053,-1.679485 -6.64042,-1.679485 z"
         style="font-family:'Liberation Sans';-inkscape-font-specification:'Liberation Sans'"
         id="path1166" />
      <path
         d="M 284.29036,68.21595 V 31.809882 h 27.62107 v 4.030764 h -22.68597 v 11.67888 h 21.13567 v 3.979088 h -21.13567 v 12.686572 h 23.74534 v 4.030764 z"
         style="font-family:'Liberation Sans';-inkscape-font-specification:'Liberation Sans'"
         id="path1168" />
      <path
         d="m 347.17028,68.21595 -19.48203,-31.005878 0.1292,2.506308 0.12919,4.314985 V 68.21595 h -4.3925 V 31.809882 h 5.73608 l 19.68874,31.212583 Q 348.6689,57.958172 348.6689,55.684408 V 31.809882 h 4.44417 V 68.21595 Z"
         style="font-family:'Liberation Sans';-inkscape-font-specification:'Liberation Sans'"
         id="path1170" />
      <path
         d="m 397.07941,49.638261 q 0,5.632735 -2.19625,9.870205 -2.19625,4.211632 -6.22701,6.459558 -4.03076,2.247926 -9.30176,2.247926 H 365.73764 V 31.809882 h 12.04062 q 9.25008,0 14.2627,4.650881 5.03845,4.625044 5.03845,13.177498 z m -4.96094,0 q 0,-6.769616 -3.7207,-10.309454 -3.69487,-3.565676 -10.72287,-3.565676 h -7.00216 v 28.49957 h 8.11321 q 4.00492,0 7.028,-1.757 3.04891,-1.757 4.67672,-5.064294 1.6278,-3.307293 1.6278,-7.803146 z"
         style="font-family:'Liberation Sans';-inkscape-font-specification:'Liberation Sans'"
         id="path1172" />
      <path
         d="M 407.92111,68.21595 V 31.809882 h 27.62107 v 4.030764 h -22.68597 v 11.67888 h 21.13568 v 3.979088 h -21.13568 v 12.686572 h 23.74534 v 4.030764 z"
         style="font-family:'Liberation Sans';-inkscape-font-specification:'Liberation Sans'"
         id="path1174" />
      <path
         d="m 470.80105,68.21595 -19.48203,-31.005878 0.12919,2.506308 0.12919,4.314985 V 68.21595 h -4.3925 V 31.809882 h 5.73609 l 19.68873,31.212583 q -0.31005,-5.064293 -0.31005,-7.338057 V 31.809882 h 4.44417 V 68.21595 Z"
         style="font-family:'Liberation Sans';-inkscape-font-specification:'Liberation Sans'"
         id="path1176" />
      <path
         d="m 505.49146,35.298043 q -6.04614,0 -9.40511,3.901573 -3.35897,3.875735 -3.35897,10.645351 0,6.692102 3.48816,10.774543 3.514,4.056602 9.48263,4.056602 7.64812,0 11.49801,-7.570602 l 4.03077,2.015382 q -2.24793,4.702559 -6.33037,7.157191 -4.0566,2.454632 -9.43095,2.454632 -5.50355,0 -9.53431,-2.273765 -4.00493,-2.299602 -6.12366,-6.537072 -2.0929,-4.263309 -2.0929,-10.076911 0,-8.707484 4.70256,-13.642586 4.70256,-4.935102 13.02247,-4.935102 5.8136,0 9.71517,2.273764 3.90158,2.273765 5.73609,6.743779 l -4.67672,1.550293 q -1.26607,-3.178102 -4.08244,-4.857587 -2.79053,-1.679485 -6.64043,-1.679485 z"
         style="font-family:'Liberation Sans';-inkscape-font-specification:'Liberation Sans'"
         id="path1178" />
      <path
         d="M 531.55188,68.21595 V 31.809882 h 27.62107 v 4.030764 h -22.68597 v 11.67888 h 21.13567 v 3.979088 h -21.13567 v 12.686572 h 23.74534 v 4.030764 z"
         style="font-family:'Liberation Sans';-inkscape-font-specification:'Liberation Sans'"
         id="path1180" />
    </g>
  </g>
</svg>
